<svg xmlns="http://www.w3.org/2000/svg" xmlns:xlink="http://www.w3.org/1999/xlink" width="5.766in" height="4.6454in" viewBox="0 0 415.1489 334.4681"><defs><style>.cls-1,.cls-5{fill:none;}.cls-1{stroke:#06968e;stroke-linecap:round;stroke-miterlimit:2;stroke-width:0.75px;}.cls-2{fill:#06968e;}.cls-3{fill:#f6f6f6;stroke:#05968e;}.cls-3,.cls-5{stroke-miterlimit:10;}.cls-4{fill:#05968e;}.cls-5{stroke:#03b585;}</style></defs><g id="line_art" data-name="line art"><image width="878" height="718" transform="translate(42.9752 29.312) scale(0.4219)" xlink:href="oi_default.PNG"/><line class="cls-1" x1="16.0539" y1="212.9362" x2="46.4681" y2="212.9362"/><path class="cls-2" d="M46.4681,215.756a2.82,2.82,0,1,0-2.82-2.82A2.82,2.82,0,0,0,46.4681,215.756Z"/><line class="cls-1" x1="16.5259" y1="278.6904" x2="41.1266" y2="278.6904"/><path class="cls-2" d="M41.1266,281.51a2.82,2.82,0,1,0-2.82-2.82A2.82,2.82,0,0,0,41.1266,281.51Z"/><rect class="cls-3" x="348.1502" y="2.0495" width="14.4" height="14.4"/><path class="cls-4" d="M352.5127,6.9367V5.3058h5.6729V6.6969c-1.9551,1.9551-2.1475,3.7779-2.1592,6.1646h-1.9912a8.1675,8.1675,0,0,1,2.1709-5.9248Z"/><rect class="cls-3" x="3.1375" y="205.7362" width="14.4" height="14.4"/><path class="cls-4" d="M7.2774,214.4972a1.82,1.82,0,0,1,1.4277-1.8349,1.7027,1.7027,0,0,1-1.1875-1.7154c0-1.3071,1.1631-2.0986,2.8184-2.0986s2.8183.7915,2.8183,2.0986a1.7027,1.7027,0,0,1-1.1875,1.7154,1.82,1.82,0,0,1,1.4278,1.8349c0,1.3433-1.1162,2.1948-3.0586,2.1948S7.2774,215.8405,7.2774,214.4972Zm1.8349-.1919c0,.66.4561,1.02,1.2237,1.02.7793,0,1.2236-.36,1.2236-1.02,0-.6479-.4443-.9956-1.2236-.9956C9.5684,213.31,9.1123,213.6574,9.1123,214.3053Zm.18-3.1782c0,.6.42.9233,1.044.9233.6474,0,1.0674-.3237,1.0674-.9233,0-.624-.42-.96-1.0674-.96A.9253.9253,0,0,0,9.292,211.1271Z"/><rect class="cls-3" x="3.1375" y="271.6085" width="14.4" height="14.4"/><path class="cls-4" d="M11.709,278.9308a2.0693,2.0693,0,0,1-1.8232.875,2.4021,2.4021,0,0,1-2.6387-2.47,2.62,2.62,0,0,1,2.9151-2.6153c2.0869,0,3.2138,1.4874,3.2138,3.8624,0,2.3144-1.0908,3.9814-3.2617,3.9814a2.5167,2.5167,0,0,1-2.7949-2.3389l1.7031-.0361a1.0078,1.0078,0,0,0,1.1152.9355C11.1338,281.1251,11.6612,280.2257,11.709,278.9308Zm-1.5234-2.7822a1.1532,1.1532,0,1,0,.0127,2.3027A1.0909,1.0909,0,0,0,11.3975,277.3,1.1124,1.1124,0,0,0,10.1856,276.1486Z"/><line class="cls-1" x1="270.8588" y1="16.4494" x2="270.8588" y2="66.8936"/><circle class="cls-2" cx="270.8588" cy="66.8936" r="2.8198"/><rect class="cls-5" x="143.4894" y="87.0638" width="255.8298" height="93.7013"/><line class="cls-1" x1="355.3503" y1="16.4494" x2="355.3503" y2="82.1721"/><circle class="cls-2" cx="355.3503" cy="82.1721" r="2.8198"/><polygon class="cls-5" points="411.064 328.84 46.468 328.84 44.936 233.507 411.064 233.507 411.064 328.84"/></g><g id="callouts"><line class="cls-1" x1="16.5375" y1="51.7295" x2="50.5532" y2="51.7295"/><circle class="cls-2" cx="50.5532" cy="51.7295" r="2.8198"/><line class="cls-1" x1="16.5375" y1="82.1721" x2="46.4681" y2="82.1721"/><path class="cls-2" d="M46.4681,84.9919a2.82,2.82,0,1,0-2.82-2.82A2.82,2.82,0,0,0,46.4681,84.9919Z"/><line class="cls-1" x1="17.2549" y1="112.6147" x2="46.4681" y2="112.6147"/><path class="cls-2" d="M46.4681,115.4345a2.82,2.82,0,1,0-2.82-2.82A2.82,2.82,0,0,0,46.4681,115.4345Z"/><line class="cls-1" x1="17.9268" y1="173.0608" x2="46.4681" y2="173.0608"/><path class="cls-2" d="M46.4681,175.8806a2.82,2.82,0,1,0-2.82-2.82A2.82,2.82,0,0,0,46.4681,175.8806Z"/><line class="cls-1" x1="17.5375" y1="143.8379" x2="46.4681" y2="143.8379"/><path class="cls-2" d="M46.4681,146.6577a2.82,2.82,0,1,0-2.82-2.82A2.82,2.82,0,0,0,46.4681,146.6577Z"/><rect class="cls-3" x="2.8549" y="44.9767" width="14.4" height="14.4"/><path class="cls-4" d="M8.1407,49.3722a1.6374,1.6374,0,0,0,1.8349-1.1514h1.4033v7.5679H9.5567V50.5714H8.1407Z"/><rect class="cls-3" x="3.1375" y="75.1957" width="14.4" height="14.4"/><path class="cls-4" d="M13.3164,84.4967V86.008H7.5352V84.7365l2.0869-1.6909c1.1631-.9473,1.6553-1.4273,1.6553-2.2188a.8772.8772,0,0,0-.959-.9834c-.72,0-1.0322.5156-1.0322,1.2354a2.2057,2.2057,0,0,0,.084.6357l-1.7745-.0483a3.721,3.721,0,0,1-.0966-.7076,2.6156,2.6156,0,0,1,2.8789-2.65c1.81,0,2.8066,1.0312,2.8066,2.4106,0,1.3193-.78,2.0269-1.9668,2.95l-1.0439.8276Z"/><rect class="cls-3" x="3.1375" y="105.4147" width="14.4" height="14.4"/><path class="cls-4" d="M10.3,113.1085a5.1658,5.1658,0,0,0-.5878.0357v-1.3311a4.1845,4.1845,0,0,0,.6123.0362.9329.9329,0,1,0-.0118-1.8589c-.7441,0-1.1513.5752-1.1513,1.3911l-1.752-.0723a2.7329,2.7329,0,0,1,2.9629-2.7822c1.751,0,2.7588.8994,2.7588,2.231a1.6259,1.6259,0,0,1-1.38,1.643,1.7282,1.7282,0,0,1,1.56,1.7749c0,1.3789-1.1631,2.1949-2.9141,2.1949-1.9316,0-3.083-1.0557-3.083-2.7349l1.7871.06a1.1612,1.1612,0,0,0,1.3076,1.2115c.5752,0,1.043-.3,1.043-.8633C11.4512,113.42,10.96,113.1085,10.3,113.1085Z"/><rect class="cls-3" x="2.8549" y="136.2024" width="14.4" height="14.4"/><path class="cls-4" d="M12.3379,143.8h1.0313v1.5234H12.3379v1.6909H10.5508v-1.6909H6.7969v-1.6675l3.3457-4.1973h2.1953Zm-3.9941,0h2.207v-2.7466Z"/><rect class="cls-3" x="3.1375" y="165.8608" width="14.4" height="14.4"/><path class="cls-4" d="M12.7344,170.7121H9.4122c-.0235.3359-.1192.9838-.18,1.2954a2.0549,2.0549,0,0,1,1.4277-.4556,2.429,2.429,0,0,1,2.626,2.6025A2.6256,2.6256,0,0,1,10.42,176.817c-1.9668,0-3.0225-1.0795-2.9629-2.8066l1.7519.1318a1.121,1.121,0,0,0,1.211,1.2115,1.1085,1.1085,0,0,0,1.1757-1.1993,1.1335,1.1335,0,0,0-1.164-1.2353,1.198,1.198,0,0,0-1.1035.5879l-1.751-.1323a36.361,36.361,0,0,0,.4922-4.2574h4.665Z"/></g><g id="Primary_Callouts" data-name="Primary Callouts"><rect class="cls-3" x="263.6587" y="2.0495" width="14.4" height="14.4"/><path class="cls-4" d="M269.4844,8.7956a2.0667,2.0667,0,0,1,1.8223-.8755,2.4029,2.4029,0,0,1,2.6387,2.4707,2.6189,2.6189,0,0,1-2.9141,2.6147c-2.0869,0-3.2149-1.4873-3.2149-3.8618,0-2.3149,1.0918-3.9819,3.2627-3.9819a2.5163,2.5163,0,0,1,2.794,2.3388l-1.7031.0357a1.0077,1.0077,0,0,0-1.1153-.9356C270.06,6.6007,269.5313,7.5006,269.4844,8.7956Zm1.5225,2.7827a1.1006,1.1006,0,0,0,1.2119-1.1514,1.2135,1.2135,0,0,0-2.4238,0A1.1131,1.1131,0,0,0,271.0069,11.5783Z"/></g></svg>