<svg xmlns="http://www.w3.org/2000/svg" xmlns:xlink="http://www.w3.org/1999/xlink" width="6.0567in" height="3.7241in" viewBox="0 0 436.0851 268.1384"><defs><style>.cls-1,.cls-3{fill:none;}.cls-1{stroke:#06968e;stroke-linecap:round;stroke-miterlimit:2;stroke-width:0.75px;}.cls-2{fill:#06968e;}.cls-3{stroke:#03b585;}.cls-3,.cls-4{stroke-miterlimit:10;}.cls-4{fill:#f6f6f6;stroke:#05968e;}.cls-5{fill:#05968e;}</style></defs><g id="line_art" data-name="line art"><image width="1084" height="701" transform="translate(35.3704 31.5509) scale(0.3375)" xlink:href="oi_main.PNG"/></g><g id="callouts"><line class="cls-1" x1="74.8555" y1="17.0256" x2="74.8555" y2="54.4627"/><path class="cls-2" d="M72.0357,54.4627a2.82,2.82,0,1,0,2.82-2.82A2.82,2.82,0,0,0,72.0357,54.4627Z"/><line class="cls-1" x1="169.2194" y1="17.0256" x2="169.2194" y2="54.4627"/><path class="cls-2" d="M166.4,54.4627a2.82,2.82,0,1,0,2.82-2.82A2.82,2.82,0,0,0,166.4,54.4627Z"/><line class="cls-1" x1="254.6727" y1="17.0256" x2="254.6727" y2="54.7081"/><path class="cls-2" d="M251.8528,54.7081a2.82,2.82,0,1,0,2.82-2.82A2.82,2.82,0,0,0,251.8528,54.7081Z"/><line class="cls-1" x1="17.3617" y1="91.4034" x2="206.3617" y2="91.4034"/><path class="cls-2" d="M206.3617,94.2232a2.82,2.82,0,1,0-2.82-2.82A2.82,2.82,0,0,0,206.3617,94.2232Z"/><line class="cls-1" x1="239.4894" y1="91.4034" x2="419.3789" y2="91.4034"/><line class="cls-1" x1="239.4894" y1="91.4034" x2="239.4894" y2="105.9149"/><circle class="cls-2" cx="239.4894" cy="105.9149" r="2.8198"/><line class="cls-1" x1="352.533" y1="17.0256" x2="352.5328" y2="54.4627"/><path class="cls-2" d="M349.7129,54.4627a2.82,2.82,0,1,0,2.82-2.82A2.82,2.82,0,0,0,349.7129,54.4627Z"/><line class="cls-1" x1="17.3617" y1="235.2771" x2="32.6808" y2="235.2771"/><path class="cls-2" d="M32.6808,238.0969a2.82,2.82,0,1,0-2.82-2.82A2.82,2.82,0,0,0,32.6808,238.0969Z"/><polygon class="cls-3" points="401.359 266.553 36.763 266.553 35.232 215.489 401.359 215.489 401.359 266.553"/></g><g id="Primary_Callouts" data-name="Primary Callouts"><rect class="cls-4" x="67.6555" y="2.6255" width="14.4" height="14.4"/><path class="cls-5" d="M72.9412,7.021A1.6375,1.6375,0,0,0,74.7762,5.87H76.18v7.5679H74.3572V8.22h-1.416Z"/><rect class="cls-4" x="162.0193" y="2.6255" width="14.4" height="14.4"/><path class="cls-5" d="M172.1981,11.9263v1.5112h-5.7813V12.166l2.0879-1.6909c1.1621-.9473,1.6543-1.4273,1.6543-2.2188a.8772.8772,0,0,0-.959-.9834c-.72,0-1.0312.5157-1.0312,1.2354a2.174,2.174,0,0,0,.0839.6357l-1.7753-.0483a3.71,3.71,0,0,1-.0958-.7075,2.6149,2.6149,0,0,1,2.878-2.65c1.8115,0,2.8066,1.0312,2.8066,2.4106,0,1.3194-.78,2.0269-1.9668,2.95l-1.0439.8277Z"/><rect class="cls-4" x="247.4727" y="2.6255" width="14.4" height="14.4"/><path class="cls-5" d="M254.6356,10.3193a5.1432,5.1432,0,0,0-.5879.0357V9.0239a4.1865,4.1865,0,0,0,.6113.0361.9329.9329,0,1,0-.0117-1.8588c-.7432,0-1.1514.5752-1.1514,1.3911l-1.751-.0723a2.7326,2.7326,0,0,1,2.9619-2.7822c1.752,0,2.7588.8994,2.7588,2.2309a1.6259,1.6259,0,0,1-1.3789,1.6431,1.7273,1.7273,0,0,1,1.5586,1.7749c0,1.3789-1.1631,2.1948-2.914,2.1948-1.9307,0-3.0821-1.0556-3.0821-2.7348l1.7871.06a1.16,1.16,0,0,0,1.3067,1.2115c.5761,0,1.0439-.3,1.0439-.8633C255.7869,10.6308,255.2947,10.3193,254.6356,10.3193Z"/><rect class="cls-4" x="345.333" y="2.6255" width="14.4" height="14.4"/><path class="cls-5" d="M354.8162,10.2231h1.0313v1.5235h-1.0313v1.6909h-1.7871V11.7466h-3.7539V10.0791l3.3457-4.1973h2.1953Zm-3.9941,0h2.207V7.4766Z"/><rect class="cls-4" x="2.4609" y="84.2034" width="14.4" height="14.4"/><path class="cls-5" d="M12.0584,89.0547H8.7361c-.0244.3359-.12.9839-.18,1.2954a2.052,2.052,0,0,1,1.4267-.4556,2.43,2.43,0,0,1,2.627,2.6026A2.6265,2.6265,0,0,1,9.743,95.16c-1.9668,0-3.0215-1.08-2.9619-2.8067l1.7509.1319a1.1215,1.1215,0,0,0,1.211,1.2114,1.1085,1.1085,0,0,0,1.1758-1.1992,1.1334,1.1334,0,0,0-1.1631-1.2354,1.1982,1.1982,0,0,0-1.1035.5879l-1.751-.1323A36.37,36.37,0,0,0,7.3924,87.46h4.666Z"/><rect class="cls-4" x="419.3789" y="84.2034" width="14.4" height="14.4"/><path class="cls-5" d="M425.2039,90.95a2.07,2.07,0,0,1,1.8233-.8755,2.4028,2.4028,0,0,1,2.6386,2.4707,2.6193,2.6193,0,0,1-2.915,2.6148c-2.0859,0-3.2139-1.4873-3.2139-3.8619,0-2.3149,1.0918-3.9819,3.2627-3.9819a2.5164,2.5164,0,0,1,2.794,2.3389L427.89,89.69a1.008,1.008,0,0,0-1.1152-.9355C425.78,88.7549,425.2518,89.6548,425.2039,90.95Zm1.5235,2.7827a1.1526,1.1526,0,1,0-1.212-1.1514A1.1127,1.1127,0,0,0,426.7274,93.7324Z"/></g><g id="Illustration_Frames" data-name="Illustration Frames"><rect class="cls-4" x="2.4609" y="228.0771" width="14.4" height="14.4"/><path class="cls-5" d="M6.8231,232.9643v-1.6308h5.6728v1.3916c-1.9551,1.9551-2.1465,3.7773-2.1582,6.164H8.3465a8.1641,8.1641,0,0,1,2.1709-5.9248Z"/></g></svg>